<svg xmlns="http://www.w3.org/2000/svg" xmlns:xlink="http://www.w3.org/1999/xlink" height="70" width="58.334" viewBox="0 0 58.334 70">
  <defs>
    <clipPath id="clip-path">
      <path id="Bounding_box" data-name="Bounding box" d="M0,0H58.334V70H0Z" fill="#d9d9d9" style="isolation: isolate"/>
    </clipPath>
  </defs>
  <g id="credit_card_heart" clip-path="url(#clip-path)" style="isolation: isolate">
    <path id="credit_card_heart-2" data-name="credit_card_heart" d="M1.714,44.953A5.617,5.617,0,0,1,0,40.833v-35a5.617,5.617,0,0,1,1.714-4.12A5.617,5.617,0,0,1,5.833,0H52.5a5.617,5.617,0,0,1,4.12,1.714,5.617,5.617,0,0,1,1.714,4.12V21.365a20,20,0,0,0-2.771-1.677,21.232,21.232,0,0,0-3.062-1.24V11.667H5.833V23.333h26.25A20.43,20.43,0,0,0,27.6,29.859a19.9,19.9,0,0,0-1.641,8.057,20.313,20.313,0,0,0,.51,4.557,19.881,19.881,0,0,0,1.458,4.193H5.833A5.617,5.617,0,0,1,1.714,44.953Zm34.453-7.036a5.639,5.639,0,0,1-1.349-2.042,6.318,6.318,0,0,1-.4-2.187,5.968,5.968,0,0,1,1.677-4.156,5.584,5.584,0,0,1,4.3-1.823,4.949,4.949,0,0,1,3.208.948q1.167.948,2.771,2.552,1.458-1.458,2.661-2.479a4.968,4.968,0,0,1,3.318-1.021,5.5,5.5,0,0,1,4.339,1.859,6.171,6.171,0,0,1,1.641,4.193,5.922,5.922,0,0,1-1.75,4.156L46.375,48.125Z" transform="translate(0 11.667)" fill="#37937e" style="isolation: isolate"/>
  </g>
</svg>