<svg xmlns="http://www.w3.org/2000/svg" width="28" height="28" viewBox="0 0 28 28">
  <g id="Group" style="isolation: isolate">
    <g id="Ellipse" fill="none" style="isolation: isolate">
      <path d="M0,14A14,14,0,1,1,14,28,14,14,0,0,1,0,14Z" stroke="none"/>
      <path d="M 14 1 C 10.5275707244873 1 7.262990951538086 2.352239608764648 4.807609558105469 4.807609558105469 C 2.352239608764648 7.262990951538086 1 10.5275707244873 1 14 C 1 17.47243118286133 2.352239608764648 20.73702049255371 4.807609558105469 23.19239044189453 C 7.262979507446289 25.64776992797852 10.5275707244873 27 14 27 C 17.47243118286133 27 20.73702049255371 25.64776992797852 23.19239044189453 23.19239044189453 C 25.64776992797852 20.73702049255371 27 17.47243118286133 27 14 C 27 10.5275707244873 25.64776992797852 7.262979507446289 23.19239044189453 4.807609558105469 C 20.73702049255371 2.352239608764648 17.47243118286133 1 14 1 M 14 0 C 21.73200035095215 0 28 6.268009185791016 28 14 C 28 21.73200035095215 21.73200035095215 28 14 28 C 6.268009185791016 28 0 21.73200035095215 0 14 C 0 6.268009185791016 6.268009185791016 0 14 0 Z" stroke="none" fill="#d4d4d8"/>
    </g>
    <path id="Vector" d="M0,6.48a6.508,6.508,0,0,0,4.428,6.156c.324.054.432-.135.432-.324V11.2c-1.809.405-2.187-.864-2.187-.864A1.66,1.66,0,0,0,1.944,9.4c-.594-.4.054-.4.054-.4a1.41,1.41,0,0,1,1,.675,1.378,1.378,0,0,0,1.89.54,1.3,1.3,0,0,1,.4-.864C3.861,9.18,2.349,8.613,2.349,6.129A2.382,2.382,0,0,1,3.024,4.4a2.412,2.412,0,0,1,.054-1.728s.54-.162,1.782.675a6.506,6.506,0,0,1,1.62-.216,6.506,6.506,0,0,1,1.62.216c1.242-.837,1.782-.675,1.782-.675A2.29,2.29,0,0,1,9.936,4.4a2.549,2.549,0,0,1,.675,1.728c0,2.484-1.512,3.024-2.97,3.186A1.48,1.48,0,0,1,8.073,10.5v1.782c0,.162.108.378.459.324A6.473,6.473,0,1,0,0,6.48Z" transform="translate(8.127 7.227)" fill="#37937e" style="isolation: isolate"/>
  </g>
</svg>
