<svg xmlns="http://www.w3.org/2000/svg" width="28" height="28" viewBox="0 0 28 28">
  <g id="Ellipse" fill="none" style="isolation: isolate">
    <path d="M0,14A14,14,0,1,1,14,28,14,14,0,0,1,0,14Z" stroke="none"/>
    <path d="M 14 1 C 10.5275707244873 1 7.262990951538086 2.352239608764648 4.807609558105469 4.807609558105469 C 2.352239608764648 7.262990951538086 1 10.5275707244873 1 14 C 1 17.47243118286133 2.352239608764648 20.73702049255371 4.807609558105469 23.19239044189453 C 7.262979507446289 25.64776992797852 10.5275707244873 27 14 27 C 17.47243118286133 27 20.73702049255371 25.64776992797852 23.19239044189453 23.19239044189453 C 25.64776992797852 20.73702049255371 27 17.47243118286133 27 14 C 27 10.5275707244873 25.64776992797852 7.262979507446289 23.19239044189453 4.807609558105469 C 20.73702049255371 2.352239608764648 17.47243118286133 1 14 1 M 14 0 C 21.73200035095215 0 28 6.268009185791016 28 14 C 28 21.73200035095215 21.73200035095215 28 14 28 C 6.268009185791016 28 0 21.73200035095215 0 14 C 0 6.268009185791016 6.268009185791016 0 14 0 Z" stroke="none" fill="#d4d4d8"/>
  </g>
</svg>
