<svg xmlns="http://www.w3.org/2000/svg" width="28" height="28" viewBox="0 0 28 28">
  <g id="Group" style="isolation: isolate">
    <g id="Ellipse" fill="none" style="isolation: isolate">
      <path d="M0,14A14,14,0,1,1,14,28,14,14,0,0,1,0,14Z" stroke="none"/>
      <path d="M 14 1 C 10.5275707244873 1 7.262990951538086 2.352239608764648 4.807609558105469 4.807609558105469 C 2.352239608764648 7.262990951538086 1 10.5275707244873 1 14 C 1 17.47243118286133 2.352239608764648 20.73702049255371 4.807609558105469 23.19239044189453 C 7.262979507446289 25.64776992797852 10.5275707244873 27 14 27 C 17.47243118286133 27 20.73702049255371 25.64776992797852 23.19239044189453 23.19239044189453 C 25.64776992797852 20.73702049255371 27 17.47243118286133 27 14 C 27 10.5275707244873 25.64776992797852 7.262979507446289 23.19239044189453 4.807609558105469 C 20.73702049255371 2.352239608764648 17.47243118286133 1 14 1 M 14 0 C 21.73200035095215 0 28 6.268009185791016 28 14 C 28 21.73200035095215 21.73200035095215 28 14 28 C 6.268009185791016 28 0 21.73200035095215 0 14 C 0 6.268009185791016 6.268009185791016 0 14 0 Z" stroke="none" fill="#d4d4d8"/>
    </g>
    <path id="Vector" d="M9.847,1.42a2.246,2.246,0,0,0,1-1.257A5.045,5.045,0,0,1,9.381.722,2.32,2.32,0,0,0,7.705,0,2.285,2.285,0,0,0,5.424,2.281a1.815,1.815,0,0,0,.07.512A6.522,6.522,0,0,1,.768.4a2.382,2.382,0,0,0-.3,1.141A2.28,2.28,0,0,0,1.49,3.445,2.693,2.693,0,0,1,.442,3.166v.023A2.3,2.3,0,0,0,2.281,5.447a2.537,2.537,0,0,1-.605.07,2.852,2.852,0,0,1-.442-.047A2.279,2.279,0,0,0,3.375,7.054a4.657,4.657,0,0,1-2.84.978A3.946,3.946,0,0,1,0,8.008,6.478,6.478,0,0,0,3.515,9.032a6.475,6.475,0,0,0,6.518-6.518v-.3a4.18,4.18,0,0,0,1.141-1.164A5.1,5.1,0,0,1,9.847,1.42Z" transform="translate(9.033 9.936)" fill="#37937e" style="isolation: isolate"/>
  </g>
</svg>
