<svg xmlns="http://www.w3.org/2000/svg" width="28" height="28" viewBox="0 0 28 28">
  <g id="Group" style="isolation: isolate">
    <g id="Ellipse" fill="none" style="isolation: isolate">
      <path d="M0,14A14,14,0,1,1,14,28,14,14,0,0,1,0,14Z" stroke="none"/>
      <path d="M 14 1 C 10.5275707244873 1 7.262990951538086 2.352239608764648 4.807609558105469 4.807609558105469 C 2.352239608764648 7.262990951538086 1 10.5275707244873 1 14 C 1 17.47243118286133 2.352239608764648 20.73702049255371 4.807609558105469 23.19239044189453 C 7.262979507446289 25.64776992797852 10.5275707244873 27 14 27 C 17.47243118286133 27 20.73702049255371 25.64776992797852 23.19239044189453 23.19239044189453 C 25.64776992797852 20.73702049255371 27 17.47243118286133 27 14 C 27 10.5275707244873 25.64776992797852 7.262979507446289 23.19239044189453 4.807609558105469 C 20.73702049255371 2.352239608764648 17.47243118286133 1 14 1 M 14 0 C 21.73200035095215 0 28 6.268009185791016 28 14 C 28 21.73200035095215 21.73200035095215 28 14 28 C 6.268009185791016 28 0 21.73200035095215 0 14 C 0 6.268009185791016 6.268009185791016 0 14 0 Z" stroke="none" fill="#d4d4d8"/>
    </g>
    <g id="Group-2" data-name="Group" transform="translate(7.227 7.227)" style="isolation: isolate">
      <path id="Vector" d="M9.512,1.26a3.758,3.758,0,0,1,1.258.233,2.243,2.243,0,0,1,1.286,1.286,3.756,3.756,0,0,1,.233,1.258c.032.715.039.929.039,2.737s-.007,2.023-.039,2.737a3.756,3.756,0,0,1-.233,1.258,2.244,2.244,0,0,1-1.286,1.286,3.757,3.757,0,0,1-1.258.233c-.714.032-.928.039-2.737.039s-2.023-.007-2.737-.039a3.756,3.756,0,0,1-1.258-.233A2.243,2.243,0,0,1,1.493,10.77,3.758,3.758,0,0,1,1.26,9.512C1.227,8.8,1.22,8.583,1.22,6.775s.007-2.023.039-2.737a3.758,3.758,0,0,1,.233-1.258A2.243,2.243,0,0,1,2.779,1.493,3.758,3.758,0,0,1,4.037,1.26c.715-.032.929-.039,2.737-.039S8.8,1.227,9.512,1.26ZM3.981.041A4.974,4.974,0,0,0,2.336.355a3.318,3.318,0,0,0-1.2.782,3.318,3.318,0,0,0-.782,1.2A4.974,4.974,0,0,0,.04,3.982C.008,4.7,0,4.935,0,6.774s.008,2.07.041,2.793a4.974,4.974,0,0,0,.315,1.645,3.318,3.318,0,0,0,.782,1.2,3.317,3.317,0,0,0,1.2.782,4.974,4.974,0,0,0,1.645.315c.723.032.953.041,2.793.041s2.07-.008,2.793-.041a4.974,4.974,0,0,0,1.645-.315,3.467,3.467,0,0,0,1.981-1.982,4.974,4.974,0,0,0,.315-1.645c.032-.722.04-.954.04-2.792s-.008-2.07-.041-2.793a4.971,4.971,0,0,0-.315-1.645,3.318,3.318,0,0,0-.782-1.2,3.319,3.319,0,0,0-1.2-.782A4.973,4.973,0,0,0,9.566.04C8.845.008,8.613,0,6.774,0S4.7.008,3.981.041Z" fill="#37937e" style="isolation: isolate"/>
      <path id="Vector-2" data-name="Vector" d="M1.546.586A3.479,3.479,0,1,0,3.479,0,3.479,3.479,0,0,0,1.546.586Zm.678,4.77a2.258,2.258,0,1,1,1.255.381A2.258,2.258,0,0,1,2.224,5.356Z" transform="translate(3.297 3.297)" fill="#37937e" style="isolation: isolate"/>
      <path id="Vector-3" data-name="Vector" d="M.813,1.626A.813.813,0,1,1,1.626.813.813.813,0,0,1,.813,1.626Z" transform="translate(9.578 2.346)" fill="#37937e" style="isolation: isolate"/>
    </g>
  </g>
</svg>
